# xmcd
#
# Track frame offsets:
# 150
# 16363
# 29016
# 41254
# 56765
# 70076
# 83213
# 97639
# 107649
# 125071
#
# Disc length: 1836 seconds
#
#
# Revision: 0
# Processed by: cddbd v1.5.2PL0 Copyright (c) Steve Scherf et al.
# Submitted via: FreeRIP 2.951 
#
DISCID=7b072a0a
DTITLE=Johnny Cash - The Last Gunfighter Ballad
DYEAR=1977
DGENRE=Country
TTITLE0=I Will Dance With You
TTITLE1=The Last Gunfighter Ballad
TTITLE2=Far Side Banks Of Jordan
TTITLE3=Ridin' On The Cotton Belt
TTITLE4=Give It Away
TTITLE5=You're So Close To Me
TTITLE6=City Jail
TTITLE7=Cindy, I Love You
TTITLE8=Ballad Of Barbara
TTITLE9=That Silver Haired Daddy Of Mine
EXTD=
EXTT0=
EXTT1=
EXTT2=
EXTT3=
EXTT4=
EXTT5=
EXTT6=
EXTT7=
EXTT8=
EXTT9=
PLAYORDER=
